<svg width="392" height="834" viewBox="0 0 392 834" fill="none" xmlns="http://www.w3.org/2000/svg">
<rect width="388" height="834" rx="48" fill="#171718"/>
<rect x="4" y="4" width="380" height="826" rx="44" fill="#1D1D1E"/>
<path d="M388 203V203C390.209 203 392 204.791 392 207V251C392 253.209 390.209 255 388 255V255V203Z" fill="#FF00C7"/>
<path d="M388 307V307C390.209 307 392 308.791 392 311V407C392 409.209 390.209 411 388 411V411V307Z" fill="#1A1A1A"/>
<path fill-rule="evenodd" clip-rule="evenodd" d="M107 37C109.209 37 111 35.2091 111 33C111 30.7909 109.209 29 107 29C104.791 29 103 30.7909 103 33C103 35.2091 104.791 37 107 37Z" fill="black"/>
<path fill-rule="evenodd" clip-rule="evenodd" d="M107 42C111.971 42 116 37.9706 116 33C116 28.0294 111.971 24 107 24C102.029 24 98 28.0294 98 33C98 37.9706 102.029 42 107 42Z" fill="url(#paint0_linear_125_146)"/>
<rect x="175" y="30" width="38" height="4" rx="2" fill="black"/>
<rect x="14" y="49" width="360" height="760" rx="32" fill="black"/>
<mask id="mask0_125_146" style="mask-type:alpha" maskUnits="userSpaceOnUse" x="14" y="49" width="360" height="760">
<rect x="14" y="49" width="360" height="760" rx="10" fill="white"/>
</mask>
<g mask="url(#mask0_125_146)">
<rect x="14" y="49" width="360" height="760" fill="black"/>
</g>
<path fill-rule="evenodd" clip-rule="evenodd" d="M4 48C4 23.6995 23.6995 4 48 4H340C364.301 4 384 23.6995 384 48V786C384 810.301 364.301 830 340 830H48C23.6995 830 4 810.301 4 786V48ZM107 42C111.971 42 116 37.9706 116 33C116 28.0294 111.971 24 107 24C102.029 24 98 28.0294 98 33C98 37.9706 102.029 42 107 42ZM177 29C175.343 29 174 30.3431 174 32C174 33.6569 175.343 35 177 35H211C212.657 35 214 33.6569 214 32C214 30.3431 212.657 29 211 29H177Z" fill="url(#paint1_linear_125_146)"/>
<defs>
<linearGradient id="paint0_linear_125_146" x1="98.1314" y1="24" x2="98.1314" y2="41.7373" gradientUnits="userSpaceOnUse">
<stop stop-color="white" stop-opacity="0.05"/>
<stop offset="1" stop-color="white" stop-opacity="0.1"/>
</linearGradient>
<linearGradient id="paint1_linear_125_146" x1="6.77318" y1="4" x2="6.77318" y2="817.944" gradientUnits="userSpaceOnUse">
<stop stop-color="white" stop-opacity="0.05"/>
<stop offset="1" stop-color="white" stop-opacity="0.1"/>
</linearGradient>
</defs>
</svg>
